<svg xmlns="http://www.w3.org/2000/svg" viewBox="0 0 1920 1080"><path fill="#8A92B2" d="M959.9 220.9L838.4 422.5l121.5-55.2z"/><path fill="#62688F" d="M959.9 367.3l-121.5 55.2 121.5 71.9zM1081.4 422.5L959.9 220.9v146.4z"/><path fill="#454A75" d="M959.9 494.4l121.5-71.9-121.5-55.2z"/><path fill="#8A92B2" d="M838.4 445.6l121.5 171.2v-99.4z"/><path fill="#62688F" d="M960 517.4v99.4l121.6-171.2z"/><g fill="#8A92B2"><path d="M584.4 813.3c0 2.1-1.8 3.6-3.9 3.6H508c1.8 17.9 15.3 34.3 34.3 34.3 13 0 22.6-4.9 29.9-15.3.8-1 1.8-1.8 3.1-1.8 2.1 0 3.6 1.6 3.6 3.6 0 .8-.3 1.3-.5 1.8-7.3 12.7-21.8 19-36.1 19-24.4 0-41.8-21.8-41.8-45.2 0-23.4 17.4-45.2 41.8-45.2s42.1 21.9 42.1 45.2zm-7.8-3.6c-1.6-17.9-15.3-34.3-34.3-34.3s-32.5 16.4-34.3 34.3h68.6zM672.5 770c2.1 0 3.6 1.8 3.6 3.6 0 2.1-1.6 3.6-3.6 3.6H653v76.4c0 1.8-1.6 3.6-3.6 3.6-2.1 0-3.6-1.8-3.6-3.6v-76.4H627c-2.1 0-3.6-1.6-3.6-3.6 0-1.8 1.6-3.6 3.6-3.6h18.7v-28.1c0-2.1 1.6-3.6 3.6-3.6 2.1 0 3.6 1.6 3.6 3.6V770h19.6zM791.2 806.9v46.2c0 2.1-1.8 3.6-3.6 3.6-2.1 0-3.6-1.6-3.6-3.6v-46.2c0-15.6-8.8-31.2-26.2-31.2-22.3 0-32 19.5-30.7 39.5 0 .5.3 2.9.3 3.1v34.8c0 2.1-1.6 3.6-3.6 3.6-2.1 0-3.6-1.6-3.6-3.6v-152c0-1.8 1.6-3.6 3.6-3.6 2.1 0 3.6 1.8 3.6 3.6v86c6.2-11.2 17.4-18.7 30.4-18.7 21.2 0 33.4 18.7 33.4 38.5zM921.3 813.3c0 2.1-1.8 3.6-3.9 3.6H845c1.8 17.9 15.3 34.3 34.3 34.3 13 0 22.6-4.9 29.9-15.3.8-1 1.8-1.8 3.1-1.8 2.1 0 3.6 1.6 3.6 3.6 0 .8-.3 1.3-.5 1.8-7.3 12.7-21.8 19-36.1 19-24.4 0-41.8-21.8-41.8-45.2 0-23.4 17.4-45.2 41.8-45.2s42 21.9 42 45.2zm-7.8-3.6c-1.6-17.9-15.3-34.3-34.3-34.3s-32.5 16.4-34.3 34.3h68.6zM1010.4 773.3c0 2.3-1.3 3.6-3.4 3.9-21.3 3.1-30.9 20.5-30.9 40.8v34.8c0 2.1-1.6 3.6-3.6 3.6s-3.6-1.6-3.6-3.6v-79.2c0-2.1 1.6-3.6 3.6-3.6s3.6 1.6 3.6 3.6v16.1c6-10.1 17.9-19.7 30.4-19.7 1.9 0 3.9 1.3 3.9 3.3zM1129.7 813.3c0 2.1-1.8 3.6-3.9 3.6h-72.5c1.8 17.9 15.3 34.3 34.3 34.3 13 0 22.6-4.9 29.9-15.3.8-1 1.8-1.8 3.1-1.8 2.1 0 3.6 1.6 3.6 3.6 0 .8-.3 1.3-.5 1.8-7.3 12.7-21.8 19-36.1 19-24.4 0-41.8-21.8-41.8-45.2 0-23.4 17.4-45.2 41.8-45.2s42.1 21.9 42.1 45.2zm-7.8-3.6c-1.6-17.9-15.3-34.3-34.3-34.3s-32.5 16.4-34.3 34.3h68.6zM1246.8 774.1v79.5c0 2.1-1.8 3.6-3.6 3.6-2.1 0-3.6-1.6-3.6-3.6v-15.1c-6 12-16.6 20.5-30.1 20.5-21.6 0-33.5-18.7-33.5-38.4v-46.5c0-1.8 1.6-3.6 3.6-3.6s3.6 1.8 3.6 3.6v46.5c0 15.6 8.8 31.2 26.2 31.2 24.4 0 30.1-22.9 30.1-48.1v-29.6c0-1.8 1.6-3.6 3.6-3.6 1.9 0 3.7 1.8 3.7 3.6zM1430.5 806.6v46.5c0 2.1-1.8 3.6-3.6 3.6-2.1 0-3.6-1.6-3.6-3.6v-46.5c0-15.6-8.8-30.9-26.2-30.9-21.8 0-30.1 23.4-30.1 41.6v35.8c0 2.1-1.8 3.6-3.6 3.6-2.1 0-3.6-1.6-3.6-3.6v-46.5c0-15.6-8.8-30.9-26.2-30.9-22.1 0-31.2 17.4-30.4 40.5 0 .5.3 1.6 0 1.8v35.1c0 2.1-1.6 3.6-3.6 3.6s-3.6-1.6-3.6-3.6v-79.5c0-2.1 1.6-3.6 3.6-3.6s3.6 1.6 3.6 3.6v13.2c6.2-11.2 17.4-18.4 30.4-18.4 14.8 0 26.2 9.4 30.9 23.1 6-13.5 17.7-23.1 32.7-23.1 21.1 0 33.3 18.4 33.3 38.2z"/></g></svg>