<svg xmlns="http://www.w3.org/2000/svg" viewBox="0 0 1920 1180"><path fill="#FBDE00" d="M1809.2 87.1S1773.3 15.5 1665.8.9s-250.2 161-298.3 183.8c-48.1 22.8-107.6 43.9-342.3 182.2S475.9 719.7 475.9 719.7h135.3l-596.5 309 81.5 3.3L0 1093.8s47.3 6.5 84.8-3.3 42.4-17.9 42.4-17.9l50.5 13S537.9 840 673.2 814s378.1 100.2 378.1 100.2 1.6 62.5 21.2 95c19.6 32.5 102.5 75.2 125.5 87.8 23 12.6 31.8 39.8 31.8 39.8s-29.3.8-44.8 8.9-16.3 24.4-16.3 24.4 29.3-17.9 125.5-11.4c96.2 6.5 102.7 21.1 102.7 21.1s-7.3-23.6-24.4-32.5c-17.1-8.9-65.5-10.6-84.8-26-19.2-15.5-145.9-125.2-141.8-180.5s33.4-95.1 61.9-115.5c28.5-20.3 232.3-99.2 347.2-204.9 97.8-89.5 153.2-336.7 198.8-382.2 45.6-45.5 166.2-82.9 166.2-82.9l-110.8-68.2zm-119 35.2c-14.1 0-25.5-11.4-25.5-25.5s11.4-25.5 25.5-25.5 25.5 11.4 25.5 25.5-11.4 25.5-25.5 25.5z"/></svg>